<svg width="92" height="63" viewBox="0 0 92 63" fill="none" xmlns="http://www.w3.org/2000/svg">
<path d="M6.578 12.64L0 35H4.368L10.972 12.64H6.578ZM15.002 12.016L16.12 8.246H4.394L2.756 12.016H15.002Z" fill="#3C4048"/>
<path d="M24.2338 21.558L21.4518 17.216L20.7498 19.582H18.5398L21.8678 8.246H17.4998L9.62183 35H13.9898L17.5518 23.014H19.7358L19.0598 25.328L24.2338 21.558ZM18.7478 26.342L16.1738 35H20.5938L24.3638 22.208L18.7478 26.342ZM24.7018 21.09L28.4718 8.246H24.0778L21.6598 16.436L24.7018 21.09Z" fill="#3C4048"/>
<path d="M30.2916 12.64L23.7136 35H31.7216L33.9316 30.97H29.2776L31.5136 23.326H35.7256L36.8436 19.478H32.6576L34.6596 12.64H30.2916ZM40.0936 8.246H30.7856L28.3936 12.016H39.0016L40.0936 8.246Z" fill="#3C4048"/>
<path d="M42.5494 35C44.3694 35 46.1894 34.376 46.8394 32.166L49.0754 24.574C49.5174 23.066 49.3354 21.792 48.0874 21.688C49.4394 21.688 50.0374 20.934 50.2714 20.128L52.8974 11.34C53.4174 9.572 52.6894 8.246 50.7134 8.246H42.2114L39.8194 12.016H47.6454C48.2694 12.016 48.5294 12.406 48.3474 13.056L46.7094 18.698C46.4494 19.53 46.1114 19.608 45.5654 19.608H44.0574L46.0854 12.64H41.7174L35.1394 35H42.5494ZM43.0694 22.988H44.3694C44.9154 22.988 45.0714 23.3 44.9414 23.768L42.9394 30.554C42.8094 30.97 42.5234 31.23 42.0814 31.23H40.6254L43.0694 22.988Z" fill="#3C4048"/>
<path d="M55.4283 12.64L48.8503 35H56.8583L59.0683 30.97H54.4143L56.6503 23.326H60.8623L61.9803 19.478H57.7943L59.7963 12.64H55.4283ZM65.2303 8.246H55.9223L53.5303 12.016H64.1383L65.2303 8.246Z" fill="#3C4048"/>
<path d="M63.9344 20.076L62.9724 23.326H68.9264C69.2644 23.326 69.2644 23.482 69.2124 23.69L67.1064 30.814C66.9764 31.282 66.7424 31.412 66.2744 31.412H65.2864C64.9744 31.412 64.7144 31.334 64.8444 30.892L65.8324 27.616H61.6984L60.3984 32.088C59.8784 33.804 60.8664 35 62.3484 35H67.4704C68.7964 35 70.2784 34.714 70.8504 32.816L73.5024 23.794C74.2824 21.168 73.0344 20.076 71.0324 20.076H63.9344ZM68.4584 19.452L70.5384 12.302C70.6684 11.834 70.8764 11.704 71.3444 11.704H72.9824L71.5264 16.618L75.9204 15.63L78.0784 8.246H69.9924C68.6664 8.246 67.3144 8.584 66.7684 10.482L64.1164 19.452H68.4584Z" fill="#3C4048"/>
<path d="M82.1659 12.64L75.5879 35H79.9559L86.5599 12.64H82.1659ZM90.5899 12.016L91.7079 8.246H79.9819L78.3439 12.016H90.5899Z" fill="#3C4048"/>
<path d="M6.578 40.64L0 63H4.368L10.972 40.64H6.578ZM15.002 40.016L16.12 36.246H4.394L2.756 40.016H15.002Z" fill="#3C4048"/>
<path d="M24.2338 49.558L21.4518 45.216L20.7498 47.582H18.5398L21.8678 36.246H17.4998L9.62183 63H13.9898L17.5518 51.014H19.7358L19.0598 53.328L24.2338 49.558ZM18.7478 54.342L16.1738 63H20.5938L24.3638 50.208L18.7478 54.342ZM24.7018 49.09L28.4718 36.246H24.0778L21.6598 44.436L24.7018 49.09Z" fill="#3C4048"/>
<path d="M32.3196 48.648L34.6596 40.64H30.2916L23.7136 63H28.0816L31.3316 52.028H32.6316C33.1776 52.028 33.3336 52.34 33.2036 52.808L30.1876 63H34.5556L37.3376 53.614C37.7796 52.106 37.5976 50.832 36.3496 50.728C37.7016 50.728 38.2996 49.974 38.5336 49.168L41.4716 39.34C41.9916 37.572 41.2636 36.246 39.2876 36.246H30.7856L28.3936 40.016H36.2196C36.8436 40.016 37.1036 40.406 36.9216 41.056L34.9976 47.634C34.7636 48.466 34.3736 48.648 33.8796 48.648H32.3196Z" fill="#3C4048"/>
<path d="M44.0026 40.64L37.4246 63H45.4326L47.6426 58.97H42.9886L45.2246 51.326H49.4366L50.5546 47.478H46.3686L48.3706 40.64H44.0026ZM53.8046 36.246H44.4966L42.1046 40.016H52.7126L53.8046 36.246Z" fill="#3C4048"/>
<path d="M55.4283 40.64L48.8503 63H56.8583L59.0683 58.97H54.4143L56.6503 51.326H60.8623L61.9803 47.478H57.7943L59.7963 40.64H55.4283ZM65.2303 36.246H55.9223L53.5303 40.016H64.1383L65.2303 36.246Z" fill="#3C4048"/>
<path d="M4.298 4C4.298 1.79086 6.08886 0 8.298 0H51.298C51.298 2.20914 49.5071 4 47.298 4H4.298Z" fill="url(#paint0_linear_22_4)"/>
<defs>
<linearGradient id="paint0_linear_22_4" x1="51.298" y1="-1.27654e-05" x2="-0.201999" y2="3.99998" gradientUnits="userSpaceOnUse">
<stop stop-color="#209398"/>
<stop offset="0.377809" stop-color="#034B4F"/>
</linearGradient>
</defs>
</svg>
