<svg width="101" height="71" viewBox="0 0 101 71" fill="none" xmlns="http://www.w3.org/2000/svg">
<path d="M7.084 13.92L0 38H4.704L11.816 13.92H7.084ZM16.156 13.248L17.36 9.188H4.732L2.968 13.248H16.156Z" fill="#3C4048"/>
<path d="M26.098 23.524L23.102 18.848L22.346 21.396H19.966L23.55 9.188H18.846L10.362 38H15.066L18.902 25.092H21.254L20.526 27.584L26.098 23.524ZM20.19 28.676L17.418 38H22.178L26.238 24.224L20.19 28.676ZM26.602 23.02L30.662 9.188H25.93L23.326 18.008L26.602 23.02Z" fill="#3C4048"/>
<path d="M32.6217 13.92L25.5378 38H34.1618L36.5418 33.66H31.5298L33.9378 25.428H38.4738L39.6777 21.284H35.1698L37.3257 13.92H32.6217ZM43.1777 9.188H33.1538L30.5778 13.248H42.0018L43.1777 9.188Z" fill="#3C4048"/>
<path d="M47.6545 38C49.6145 38 51.5745 37.328 52.2745 34.948L54.6825 26.772C55.1585 25.148 54.9625 23.776 53.6185 23.664C55.0745 23.664 55.7185 22.852 55.9705 21.984L58.7985 12.52C59.3585 10.616 58.5745 9.188 56.4465 9.188H47.2905L44.7145 13.248H53.1425C53.8145 13.248 54.0945 13.668 53.8985 14.368L52.1345 20.444C51.8545 21.34 51.4905 21.424 50.9025 21.424H49.2785L51.4625 13.92H46.7585L39.6745 38H47.6545ZM48.2145 25.064H49.6145C50.2025 25.064 50.3705 25.4 50.2305 25.904L48.0745 33.212C47.9345 33.66 47.6265 33.94 47.1505 33.94H45.5825L48.2145 25.064Z" fill="#3C4048"/>
<path d="M61.5241 13.92L54.4401 38H63.0641L65.4441 33.66H60.4321L62.8401 25.428H67.3761L68.5801 21.284H64.0721L66.2281 13.92H61.5241ZM72.0801 9.188H62.0561L59.4801 13.248H70.9041L72.0801 9.188Z" fill="#3C4048"/>
<path d="M70.6845 21.928L69.6485 25.428H76.0605C76.4245 25.428 76.4245 25.596 76.3685 25.82L74.1005 33.492C73.9605 33.996 73.7085 34.136 73.2045 34.136H72.1405C71.8045 34.136 71.5245 34.052 71.6645 33.576L72.7285 30.048H68.2765L66.8765 34.864C66.3165 36.712 67.3805 38 68.9765 38H74.4925C75.9205 38 77.5165 37.692 78.1325 35.648L80.9885 25.932C81.8285 23.104 80.4845 21.928 78.3285 21.928H70.6845ZM75.5565 21.256L77.7965 13.556C77.9365 13.052 78.1605 12.912 78.6645 12.912H80.4285L78.8605 18.204L83.5925 17.14L85.9165 9.188H77.2085C75.7805 9.188 74.3245 9.552 73.7365 11.596L70.8805 21.256H75.5565Z" fill="#3C4048"/>
<path d="M90.3184 13.92L83.2344 38H87.9384L95.0504 13.92H90.3184ZM99.3904 13.248L100.594 9.188H87.9664L86.2024 13.248H99.3904Z" fill="#3C4048"/>
<path d="M3.444 68H8.148L11.844 55.428H16.1L17.332 51.284H13.076L15.232 43.92H10.528L3.444 68ZM21.084 39.188H11.06L8.484 43.248H19.908L21.084 39.188Z" fill="#3C4048"/>
<path d="M24.372 63.212C24.232 63.688 24.008 63.94 23.532 63.94H22.384C21.908 63.94 21.74 63.66 21.88 63.212L27.564 43.92H22.86L16.924 64.08C16.168 66.656 17.624 68 19.64 68H23.952C25.912 68 27.872 67.328 28.572 64.948L35.096 42.52C35.656 40.616 34.732 39.188 32.604 39.188H23.392L20.816 43.248H29.104C29.776 43.248 30.084 43.528 29.888 44.228L24.372 63.212Z" fill="#3C4048"/>
<path d="M38.6428 39.188L31.5868 63.156C30.5508 66.712 32.1468 68 35.0588 68H37.1868L36.5148 70.268L41.9748 67.496L50.3188 39.188H45.6148L38.3068 63.94H37.2708C36.4028 63.94 36.1508 63.632 36.4028 62.764L43.3468 39.188H38.6428Z" fill="#3C4048"/>
<path d="M54.2198 52.544L56.7398 43.92H52.0358L44.9518 68H49.6558L53.1558 56.184H54.5558C55.1438 56.184 55.3118 56.52 55.1718 57.024L51.9238 68H56.6278L59.6238 57.892C60.0998 56.268 59.9038 54.896 58.5598 54.784C60.0158 54.784 60.6598 53.972 60.9118 53.104L64.0758 42.52C64.6358 40.616 63.8518 39.188 61.7238 39.188H52.5678L49.9918 43.248H58.4198C59.0918 43.248 59.3718 43.668 59.1758 44.368L57.1038 51.452C56.8518 52.348 56.4318 52.544 55.8998 52.544H54.2198Z" fill="#3C4048"/>
<path d="M0.244 5C0.244 2.23858 2.48258 0 5.244 0H56.244C56.244 2.76142 54.0054 5 51.244 5H0.244Z" fill="url(#paint0_linear_4_9)"/>
<defs>
<linearGradient id="paint0_linear_4_9" x1="57.994" y1="0.833375" x2="0.27776" y2="5.42442" gradientUnits="userSpaceOnUse">
<stop stop-color="#008F96"/>
<stop offset="1" stop-color="#021516" stop-opacity="0.67"/>
</linearGradient>
</defs>
</svg>
